# xmcd
#
# Track frame offsets:
# 150
# 14025
# 27150
# 48927
# 63925
# 85837
# 102300
# 118612
# 142462
# 159000
#
# Disc length: 2249 seconds
#
#
# Revision: 0
# Processed by: cddbd v1.4PL0 Copyright (c) Steve Scherf et al.
# Submitted via: FreeRIP 2.12 
#
DISCID=8008c70a
DTITLE=Dona Oxford - rowena said...
DYEAR=1999
DGENRE=Blues
TTITLE0=Cinderella
TTITLE1=Down in New Orleans
TTITLE2=Rowena Said...
TTITLE3=Big Hands, Big Feet
TTITLE4=Bye Bye M'Baby
TTITLE5=Just A Little Bit
TTITLE6=I'm on Fire
TTITLE7=Red White and Blues
TTITLE8=It's Rainin'
TTITLE9=Doe's Blues
EXTD=
EXTT0=
EXTT1=
EXTT2=
EXTT3=
EXTT4=
EXTT5=
EXTT6=
EXTT7=
EXTT8=
EXTT9=
PLAYORDER=
